<svg width="196" height="38" viewBox="0 0 196 38" fill="none" xmlns="http://www.w3.org/2000/svg">
<g filter="url(#filter0_d_3_716)">
<path d="M27.8516 20.9193C25.1748 20.9193 22.8812 22.5611 21.9229 24.893C21.0476 24.6758 20.2267 24.778 19.5942 24.9537C18.6487 22.5899 16.3424 20.9193 13.6431 20.9193C10.9439 20.9193 8.45232 22.7273 7.58665 25.2444C6.46863 24.9857 4.69257 24.6822 3.0379 24.8419C2.13709 24.9282 1.40239 25.3211 0.916849 25.9759C-0.0286789 27.2505 0.303534 29.0489 0.34506 29.2501L2.22334 28.8732C2.16584 28.5761 2.08598 27.6146 2.45972 27.1131C2.55875 26.9789 2.74721 26.7937 3.21998 26.7489C4.65743 26.6116 6.26739 26.9055 7.24166 27.1323C7.24166 27.1993 7.23208 27.2632 7.23208 27.3303C7.23208 30.8729 10.1038 33.7414 13.6431 33.7414C17.1825 33.7414 20.0542 30.8697 20.0542 27.3303C20.0542 27.1578 20.0414 26.9853 20.0287 26.816C20.4152 26.701 20.9327 26.6212 21.4693 26.7553C21.4533 26.9438 21.4406 27.1355 21.4406 27.3303C21.4406 30.8729 24.3123 33.7414 27.8516 33.7414C31.391 33.7414 34.2627 30.8697 34.2627 27.3303C34.2627 23.791 31.391 20.9193 27.8516 20.9193ZM13.6399 31.828C11.1611 31.828 9.1455 29.8123 9.1455 27.3335C9.1455 24.8547 11.1611 22.8391 13.6399 22.8391C16.1188 22.8391 18.1344 24.8547 18.1344 27.3335C18.1344 29.8123 16.1188 31.828 13.6399 31.828ZM27.8516 31.828C25.3728 31.828 23.3572 29.8123 23.3572 27.3335C23.3572 24.8547 25.3728 22.8391 27.8516 22.8391C30.3304 22.8391 32.3461 24.8547 32.3461 27.3335C32.3461 29.8123 30.3304 31.828 27.8516 31.828Z" fill="#DC0005"/>
<path d="M34.1668 14.9554L38 12.352C38 12.352 35.304 10.413 32.9849 10.6494L37.3867 7.85754C37.3867 7.85754 33.9336 5.49053 25.7912 6.29551L27.4938 4.35654C27.4938 4.35654 18.5017 3.45892 11.9724 7.10048C11.9724 7.10048 11.3559 6.20287 12.3046 5.34998C12.3046 5.34998 9.13265 5.1136 6.24815 8.37822L6.29607 7.10048C6.29607 7.10048 0.61651 12.5916 0 12.7321C0 12.7321 1.32566 13.5371 1.41829 14.2942C1.41829 14.2942 4.25807 22.2928 4.02169 23.1425L5.34734 23.0467L8.7078 15.4761C8.7078 15.4761 18.0321 12.352 28.9632 16.3737L30.621 19.9705L34.6427 19.83L33.7898 17.7952L36.4859 17.6067C36.4859 17.6067 35.5404 15.2876 34.1668 14.9554Z" fill="#292929"/>
<path d="M141.063 29.423C140.437 29.4185 139.803 29.396 139.177 29.36L138.646 29.3285L138.66 28.7976C138.705 26.9438 138.759 25.126 138.817 23.3442C138.876 21.5669 138.943 19.7626 139.02 17.9358C139.096 16.1091 139.186 14.2283 139.285 12.289C139.375 10.5297 139.479 8.67143 139.596 6.70966L136.496 6.84014C136.581 9.52633 136.649 12.217 136.698 14.8492C136.752 17.6749 136.779 20.55 136.779 23.4072C136.779 24.838 136.775 26.2599 136.761 27.6817C136.752 28.9056 136.734 30.1339 136.716 31.3578L146.799 31.0068V29.351C144.856 29.432 142.948 29.441 141.058 29.423H141.063Z" fill="#292929"/>
<path d="M149.13 30.3634C149.657 30.7908 150.273 31.1103 150.957 31.3173C151.659 31.5287 152.401 31.6367 153.171 31.6367H153.535C153.616 31.6367 153.706 31.6277 153.801 31.6097C154.404 31.5467 154.979 31.4253 155.551 31.2363C156.05 31.0788 156.586 30.8493 157.144 30.5479C157.679 30.2599 158.197 29.8459 158.687 29.3285L159.641 28.3116V29.702C159.641 30.0394 159.636 30.3769 159.623 30.7143C159.618 30.8673 159.609 31.0158 159.605 31.1688L160.941 31.2093L161.018 30.2104C161.058 29.6705 161.094 29.126 161.121 28.5681C161.153 28.0102 161.175 27.4522 161.202 26.8988C161.225 26.3454 161.252 25.8099 161.274 25.3015C161.319 24.1316 161.355 22.9483 161.382 21.7604C161.382 20.2126 161.252 18.8357 160.995 17.6659C160.748 16.532 160.338 15.5691 159.78 14.8087C159.231 14.0663 158.507 13.4949 157.621 13.1079C156.716 12.7165 155.578 12.514 154.246 12.514C153.342 12.5995 152.442 12.8514 151.618 13.2564C151.272 13.4319 150.912 13.6478 150.556 13.9088C150.21 14.1608 149.877 14.4667 149.571 14.8222C149.265 15.1777 148.986 15.6006 148.743 16.0776C148.563 16.424 148.415 16.82 148.298 17.2474L150.224 17.8683C150.336 17.4679 150.48 17.0809 150.651 16.7165C150.912 16.163 151.245 15.6726 151.636 15.2677C152.037 14.8537 152.505 14.5207 153.022 14.2823C153.553 14.0393 154.143 13.9133 154.777 13.9133C155.564 13.9133 156.248 14.0483 156.815 14.3093C157.382 14.5747 157.864 14.9392 158.242 15.3981C158.606 15.8391 158.894 16.3565 159.105 16.9325C159.308 17.4859 159.456 18.0708 159.551 18.6738C159.641 19.2632 159.699 19.8706 159.726 20.4825C159.749 21.081 159.762 21.6479 159.762 22.1878V23.4297L158.84 22.5928C158.368 22.1608 157.846 21.8234 157.297 21.5804C156.721 21.3284 156.181 21.144 155.69 21.027C155.2 20.91 154.777 20.8425 154.444 20.82C154.111 20.7975 153.922 20.7885 153.873 20.784C152.91 20.8065 152.005 20.973 151.204 21.2789C150.412 21.5849 149.729 21.9944 149.175 22.5073C148.626 23.0157 148.19 23.6142 147.888 24.2936C147.587 24.9685 147.434 25.7019 147.434 26.4668C147.434 27.1013 147.519 27.6772 147.681 28.1856L147.929 28.1721V28.7976C148.239 29.414 148.649 29.9314 149.153 30.3409L149.13 30.3634ZM149.594 24.937C149.778 24.4286 150.071 23.9696 150.462 23.5692C150.853 23.1732 151.353 22.8538 151.947 22.6198C152.536 22.3903 153.238 22.2733 154.035 22.2733C154.637 22.3003 155.245 22.4173 155.857 22.6198C156.383 22.7953 156.968 23.0562 157.603 23.4027C158.255 23.7582 158.921 24.2801 159.582 24.955L159.74 25.117V25.342C159.74 25.5624 159.735 25.7919 159.722 26.0349C159.708 26.2599 159.704 26.4803 159.704 26.7098V26.9258L159.555 27.0833C158.853 27.8347 158.147 28.4286 157.468 28.8516C156.793 29.2655 156.167 29.576 155.6 29.7784C154.943 30.0079 154.3 30.1474 153.693 30.1969H153.67C153 30.1969 152.424 30.1159 151.915 29.9494C151.384 29.7829 150.921 29.5355 150.543 29.2205C150.156 28.8966 149.855 28.4961 149.643 28.0327C149.436 27.5737 149.328 27.0563 149.328 26.4938C149.328 25.9314 149.418 25.4365 149.603 24.9415L149.594 24.937Z" fill="#292929"/>
<path d="M177.274 14.6467C176.752 13.9178 176.06 13.3419 175.209 12.9369C174.345 12.523 173.265 12.3025 171.992 12.28C171.452 12.3115 170.854 12.4375 170.26 12.6535C170.021 12.7479 169.747 12.8739 169.459 13.0224C169.18 13.1664 168.887 13.3509 168.599 13.5624C168.316 13.7738 168.023 14.0303 167.74 14.3228C167.457 14.6152 167.182 14.9662 166.917 15.3621L165.823 17.0044L166.273 6.67816H164.532L164.172 21.09C164.172 22.5523 164.257 23.8616 164.433 24.9685C164.604 26.0619 164.847 27.0068 165.162 27.7762C165.468 28.5321 165.837 29.1575 166.26 29.639C166.683 30.1159 167.16 30.5029 167.691 30.7818C168.226 31.0653 168.82 31.2678 169.454 31.3803C170.111 31.4972 170.813 31.5557 171.547 31.5557C172.482 31.5557 173.315 31.4028 174.026 31.1013C174.741 30.7998 175.371 30.3859 175.907 29.8729C176.447 29.3555 176.901 28.7436 177.261 28.0551C177.63 27.3487 177.936 26.5928 178.17 25.8099C178.404 25.018 178.57 24.2081 178.674 23.3982C178.777 22.5793 178.827 21.7829 178.827 21.0315C178.827 19.6861 178.701 18.4488 178.449 17.3554C178.206 16.2935 177.814 15.3756 177.279 14.6287L177.274 14.6467ZM177.229 22.5883C177.216 23.0337 177.175 23.5242 177.099 24.0551C177.022 24.5951 176.901 25.144 176.734 25.6839C176.563 26.2284 176.343 26.7638 176.078 27.2722C175.799 27.8032 175.448 28.2801 175.029 28.6941C174.602 29.1125 174.102 29.45 173.535 29.702C172.959 29.9584 172.289 30.0844 171.542 30.0844C170.422 30.0844 169.468 29.8909 168.716 29.513C167.947 29.126 167.331 28.5546 166.881 27.8212C166.449 27.1148 166.147 26.2464 165.976 25.234C165.814 24.2621 165.729 23.1462 165.729 21.9179C165.729 21.4049 165.801 20.8515 165.94 20.2756C166.075 19.7086 166.273 19.1327 166.521 18.5703C166.768 18.0033 167.079 17.4499 167.439 16.9235C167.803 16.388 168.217 15.9066 168.671 15.4926C169.135 15.0697 169.643 14.7232 170.188 14.4622C170.75 14.1923 171.358 14.0528 171.988 14.0348C172.829 14.0348 173.553 14.1923 174.147 14.5027C174.732 14.8087 175.232 15.2182 175.628 15.7221C176.015 16.2125 176.316 16.7705 176.527 17.3869C176.73 17.9718 176.887 18.5883 176.995 19.2137C177.099 19.8346 177.166 20.442 177.189 21.027C177.211 21.6029 177.225 22.1158 177.225 22.5748V22.5883H177.229Z" fill="#292929"/>
<path d="M192.181 14.3273C191.898 13.9043 191.565 13.5444 191.205 13.2519C190.831 12.9549 190.444 12.703 190.053 12.5095C189.131 12.0505 188.064 11.7761 186.881 11.6996C185.666 11.6996 184.604 11.8841 183.772 12.2485C182.939 12.613 182.26 13.0764 181.756 13.6344C181.247 14.1923 180.878 14.8177 180.658 15.4926C180.429 16.1811 180.316 16.865 180.316 17.5264C180.316 17.9539 180.402 18.4443 180.573 18.9932C180.739 19.5242 181.045 20.0596 181.481 20.586C181.922 21.1215 182.534 21.6209 183.295 22.0754C184.055 22.5298 185.054 22.8808 186.26 23.1147C187.092 23.2902 187.776 23.4882 188.307 23.7132C188.861 23.9471 189.31 24.2126 189.643 24.5051C189.999 24.82 190.251 25.162 190.39 25.531C190.521 25.8774 190.584 26.2329 190.584 26.5928C190.584 27.0158 190.489 27.4297 190.3 27.8302C190.116 28.2216 189.85 28.5726 189.508 28.8696C189.18 29.1575 188.775 29.396 188.312 29.5805C187.848 29.765 187.326 29.864 186.768 29.873C186.732 29.873 186.593 29.8685 186.377 29.855C186.143 29.8415 185.873 29.792 185.553 29.702C185.238 29.6165 184.901 29.477 184.559 29.2925C184.195 29.099 183.844 28.8291 183.515 28.4871C183.187 28.1452 182.894 27.7087 182.651 27.2003C182.467 26.8088 182.323 26.3499 182.228 25.8234L180.415 25.9224C180.528 26.6513 180.712 27.2858 180.955 27.8122C181.265 28.4736 181.625 29.0271 182.035 29.4545C182.44 29.882 182.872 30.2149 183.313 30.4444C183.781 30.6874 184.226 30.8718 184.631 30.9888C185.031 31.1058 185.382 31.1778 185.666 31.2003C185.972 31.2228 186.165 31.2363 186.255 31.2363C187.146 31.2363 187.925 31.1463 188.564 30.9708C189.203 30.7953 189.751 30.5704 190.201 30.2959C190.642 30.0304 191.002 29.7245 191.272 29.3915C191.551 29.0495 191.776 28.6941 191.929 28.3386C192.087 27.9787 192.195 27.6322 192.253 27.2993C192.312 26.9528 192.343 26.6423 192.343 26.3814C192.343 25.9674 192.267 25.5085 192.118 25.018C191.979 24.5546 191.704 24.0956 191.304 23.6502C190.894 23.1957 190.318 22.7728 189.585 22.3993C188.843 22.0214 187.857 21.7244 186.651 21.5219C185.931 21.4094 185.288 21.2115 184.735 20.9415C184.186 20.6715 183.718 20.3566 183.335 20.0011C182.944 19.6367 182.642 19.2362 182.444 18.8132C182.237 18.3813 182.134 17.9494 182.134 17.5219C182.134 16.847 182.251 16.2396 182.48 15.7131C182.714 15.1822 183.047 14.7322 183.47 14.3723C183.884 14.0168 184.388 13.7468 184.964 13.5669C185.522 13.3914 186.152 13.3014 186.831 13.3014C187.461 13.3014 188.046 13.4364 188.573 13.7063C189.09 13.9718 189.535 14.3363 189.895 14.7952C190.246 15.2407 190.525 15.7626 190.714 16.3475C190.903 16.928 190.998 17.5534 190.998 18.2103V18.3678L193.108 18.4398C193.108 18.4128 193.113 18.3903 193.117 18.3633C193.135 18.1878 193.14 18.0168 193.14 17.8549C193.14 17.0855 193.05 16.406 192.87 15.8301C192.69 15.2542 192.456 14.7457 192.168 14.3183L192.181 14.3273Z" fill="#292929"/>
<path d="M66.8978 5.81427L64.0271 31.5333H60.1846L57.4219 12.226L55.2621 31.4613H51.0101L48 6.23722H51.5951L53.1879 28.4511L55.6851 7.61856H59.0687L61.9934 27.8302L63.2352 5.81427H66.9023H66.8978Z" fill="#292929"/>
<path d="M83.2129 21.7739C83.1904 22.9663 83.1544 24.1541 83.1049 25.333C83.0824 25.8414 83.0554 26.3724 83.0329 26.9258C83.0104 27.4792 82.9834 28.0372 82.9519 28.5996C82.9204 29.162 82.8889 29.711 82.8439 30.2554C82.8034 30.7998 82.763 31.3083 82.727 31.7807L80.3017 31.7087C80.3242 31.3668 80.3422 31.0293 80.3557 30.7008C80.3692 30.3724 80.3737 30.0394 80.3737 29.7065C79.8428 30.2734 79.2804 30.7188 78.6909 31.0338C78.1015 31.3533 77.5391 31.5962 77.0081 31.7582C76.3917 31.9607 75.7843 32.0867 75.1813 32.1497C75.0509 32.1722 74.9294 32.1857 74.8169 32.1857H74.4524C73.6245 32.1857 72.8326 32.0687 72.0767 31.8392C71.3208 31.6097 70.6504 31.2588 70.0654 30.7863C69.4805 30.3139 69.0126 29.72 68.6661 29.0045C68.3196 28.2891 68.1442 27.4477 68.1442 26.4803C68.1442 25.6299 68.3106 24.829 68.6481 24.0821C68.9856 23.3307 69.458 22.6783 70.0654 22.1159C70.6729 21.5534 71.4108 21.108 72.2702 20.7795C73.1341 20.451 74.088 20.2711 75.1408 20.2486C75.1768 20.2486 75.3793 20.2621 75.7438 20.2846C76.1082 20.3071 76.5537 20.3836 77.0801 20.505C77.6066 20.631 78.1735 20.8245 78.7809 21.09C79.3883 21.3554 79.9508 21.7244 80.4727 22.1968C80.4727 21.6659 80.4592 21.1035 80.4367 20.514C80.4142 19.9246 80.3557 19.3442 80.2702 18.7682C80.1803 18.1968 80.0408 17.6479 79.8518 17.1304C79.6628 16.6085 79.4063 16.1541 79.0824 15.7581C78.7584 15.3621 78.349 15.0517 77.8495 14.8177C77.3546 14.5882 76.7517 14.4713 76.0407 14.4713C75.4873 14.4713 74.9789 14.5792 74.5154 14.7907C74.0565 15.0022 73.647 15.2947 73.2916 15.6591C72.9361 16.0236 72.6436 16.46 72.4052 16.9595C72.1667 17.4589 71.9912 18.0033 71.8742 18.5793L68.9001 17.6209C69.0396 16.946 69.2465 16.352 69.512 15.8301C69.7775 15.3127 70.0789 14.8582 70.4164 14.4667C70.7539 14.0753 71.1138 13.7423 71.4963 13.4679C71.8787 13.1889 72.2612 12.9549 72.6391 12.766C73.5255 12.3295 74.4794 12.064 75.5098 11.9695C76.9271 11.9695 78.124 12.181 79.1049 12.6085C80.0858 13.0314 80.8777 13.6613 81.4896 14.4847C82.097 15.3127 82.5335 16.334 82.7989 17.5489C83.0644 18.7637 83.1994 20.1721 83.1994 21.7649L83.2129 21.7739ZM80.4502 26.6963C80.4502 26.4623 80.4547 26.2284 80.4682 25.9989C80.4817 25.7694 80.4862 25.5489 80.4862 25.333C79.8608 24.694 79.2444 24.2126 78.6369 23.8796C78.0295 23.5512 77.4761 23.2992 76.9811 23.1372C76.4142 22.9483 75.8653 22.8448 75.3343 22.8178C74.6009 22.8178 73.971 22.9213 73.449 23.1282C72.9226 23.3352 72.4907 23.6097 72.1577 23.9516C71.8202 24.2936 71.5728 24.6851 71.4153 25.1215C71.2578 25.5579 71.1768 26.0124 71.1768 26.4848C71.1768 26.9573 71.2668 27.4072 71.4423 27.7942C71.6178 28.1811 71.8697 28.5141 72.1937 28.7841C72.5177 29.054 72.9136 29.2655 73.3815 29.414C73.8495 29.5625 74.3714 29.6345 74.9474 29.6345C75.5143 29.585 76.1037 29.459 76.7202 29.243C77.2511 29.054 77.8405 28.7616 78.4839 28.3656C79.1274 27.9697 79.7843 27.4117 80.4592 26.6918L80.4502 26.6963Z" fill="#292929"/>
<path d="M98.4796 19.8796C98.4302 19.2047 98.3222 18.6153 98.1422 18.1068C97.9667 17.5984 97.7507 17.1575 97.4943 16.7795C97.2378 16.4015 96.9588 16.0821 96.6439 15.8211C96.3289 15.5601 96.0139 15.3487 95.6945 15.1822C94.9521 14.7907 94.1107 14.5703 93.1793 14.5073C92.4819 14.5073 91.8789 14.6198 91.3705 14.8447C90.862 15.0697 90.4346 15.3712 90.0881 15.7581C89.7417 16.1406 89.4582 16.5815 89.2467 17.0765C89.0353 17.5714 88.8688 18.0933 88.7518 18.6333C88.6348 19.1777 88.5583 19.7267 88.5223 20.2801C88.4863 20.8335 88.4683 21.3555 88.4683 21.8369C88.4683 22.3184 88.5133 22.8448 88.6078 23.4117C88.7023 23.9787 88.8463 24.5456 89.0398 25.1125C89.2332 25.6795 89.4717 26.2239 89.7552 26.7503C90.0386 27.2768 90.3671 27.7447 90.7361 28.1497C91.1095 28.5591 91.528 28.8831 92.0004 29.1261C92.4729 29.369 92.9858 29.4905 93.5392 29.4905C94.2232 29.432 94.8891 29.2385 95.5415 28.9056C95.8115 28.7616 96.0904 28.5906 96.3739 28.3836C96.6574 28.1767 96.9363 27.9202 97.2063 27.6142C97.4763 27.3083 97.7327 26.9483 97.9667 26.5434C98.2007 26.1384 98.4032 25.666 98.5696 25.135L100.891 26.2689C100.716 26.8943 100.473 27.4567 100.171 27.9517C99.87 28.4466 99.5325 28.8831 99.1636 29.252C98.7946 29.621 98.3942 29.945 97.9757 30.2194C97.5573 30.4894 97.1478 30.7234 96.7429 30.9123C95.7755 31.3488 94.7406 31.6368 93.6427 31.7807C93.5482 31.7807 93.4582 31.7852 93.3683 31.7987C93.2783 31.8122 93.1883 31.8167 93.0938 31.8167C92.2569 31.8167 91.492 31.6773 90.799 31.4028C90.1061 31.1238 89.4897 30.7459 88.9408 30.2599C88.3918 29.774 87.9149 29.2025 87.5144 28.5411C87.114 27.8797 86.781 27.1643 86.5156 26.3904C86.2501 25.6165 86.0521 24.8111 85.9216 23.9742C85.7911 23.1373 85.7281 22.2914 85.7281 21.441C85.7281 20.1766 85.8721 18.9752 86.1601 17.8279C86.4481 16.6805 86.8935 15.6771 87.4964 14.8087C88.0994 13.9403 88.8643 13.2519 89.8002 12.7435C90.7316 12.235 91.8429 11.9831 93.1298 11.9831C94.1197 11.9831 95.0016 12.1045 95.771 12.3475C96.5404 12.5905 97.2063 12.91 97.7732 13.3149C98.3402 13.7154 98.8171 14.1698 99.1996 14.6782C99.582 15.1867 99.9015 15.7086 100.149 16.2441C100.396 16.7795 100.585 17.3059 100.716 17.8189C100.846 18.3318 100.927 18.7908 100.963 19.1912L98.4661 19.8841L98.4796 19.8796Z" fill="#292929"/>
<path d="M106.453 6.5432C106.453 12.2485 106.381 17.9044 106.241 23.5107C107.353 21.8234 108.432 20.1001 109.481 18.3363C110.529 16.5725 111.573 14.7952 112.599 12.9864L115.929 14.1203C115.195 15.2182 114.462 16.2891 113.724 17.3284C112.986 18.3678 112.243 19.4027 111.501 20.4286C112.208 22.3048 112.99 24.1406 113.841 25.9359C114.691 27.7312 115.582 29.5085 116.514 31.2678L113.395 31.9922C112.72 30.4939 112.086 28.9731 111.483 27.4387C110.88 25.9044 110.331 24.3161 109.836 22.6738C109.211 23.4792 108.59 24.2711 107.978 25.054C107.362 25.8414 106.736 26.6153 106.102 27.3848L105.958 31.5288H103.744C103.686 27.3488 103.6 23.1822 103.488 19.0337C103.375 14.8807 103.218 10.6917 103.02 6.46671L106.457 6.5387L106.453 6.5432Z" fill="#292929"/>
<path d="M132.419 21.1575C132.419 22.8583 132.221 24.3836 131.825 25.7289C131.429 27.0743 130.894 28.2172 130.214 29.1575C129.535 30.0979 128.734 30.8178 127.816 31.3173C126.894 31.8212 125.913 32.0687 124.878 32.0687C123.843 32.0687 122.84 31.8077 121.917 31.2903C120.995 30.7729 120.194 30.0349 119.51 29.0766C118.826 28.1182 118.286 26.9708 117.89 25.63C117.494 24.2891 117.296 22.7998 117.296 21.1575C117.296 19.7536 117.472 18.4668 117.818 17.3059C118.165 16.1406 118.669 15.1417 119.326 14.3048C119.983 13.4679 120.779 12.8155 121.715 12.3475C122.651 11.8796 123.708 11.6456 124.878 11.6456C126.178 11.6456 127.299 11.8796 128.244 12.3475C129.189 12.8155 129.971 13.4679 130.592 14.3048C131.213 15.1417 131.672 16.1451 131.974 17.3059C132.275 18.4668 132.424 19.7536 132.424 21.1575H132.419ZM129.674 21.1935C129.674 20.1316 129.58 19.1642 129.391 18.2868C129.202 17.4139 128.91 16.6625 128.514 16.0281C128.118 15.3982 127.618 14.9077 127.015 14.5658C126.412 14.2238 125.697 14.0528 124.874 14.0528C124.131 14.0528 123.461 14.2238 122.862 14.5658C122.264 14.9077 121.76 15.3937 121.346 16.0281C120.932 16.6625 120.613 17.4139 120.388 18.2868C120.163 19.1597 120.05 20.1271 120.05 21.1935C120.05 22.4353 120.176 23.5557 120.433 24.5591C120.685 25.5625 121.031 26.4264 121.458 27.1463C121.89 27.8662 122.399 28.4196 122.979 28.8111C123.564 29.2025 124.194 29.396 124.865 29.396C125.535 29.396 126.147 29.207 126.732 28.8291C127.317 28.4511 127.825 27.9067 128.253 27.2003C128.68 26.4939 129.027 25.6345 129.279 24.6221C129.531 23.6097 129.661 22.4713 129.661 21.1935H129.674Z" fill="#292929"/>
</g>
<defs>
<filter id="filter0_d_3_716" x="0" y="4.25867" width="195.14" height="31.4827" filterUnits="userSpaceOnUse" color-interpolation-filters="sRGB">
<feFlood flood-opacity="0" result="BackgroundImageFix"/>
<feColorMatrix in="SourceAlpha" type="matrix" values="0 0 0 0 0 0 0 0 0 0 0 0 0 0 0 0 0 0 127 0" result="hardAlpha"/>
<feOffset dx="1" dy="1"/>
<feGaussianBlur stdDeviation="0.5"/>
<feComposite in2="hardAlpha" operator="out"/>
<feColorMatrix type="matrix" values="0 0 0 0 1 0 0 0 0 1 0 0 0 0 1 0 0 0 0.5 0"/>
<feBlend mode="normal" in2="BackgroundImageFix" result="effect1_dropShadow_3_716"/>
<feBlend mode="normal" in="SourceGraphic" in2="effect1_dropShadow_3_716" result="shape"/>
</filter>
</defs>
</svg>
