<svg width="530" height="398" viewBox="0 0 530 398" fill="none" xmlns="http://www.w3.org/2000/svg">
    <style>
        .orbit-path {
            stroke: #A1A1A1;
            stroke-width: 2;
            opacity: 0.5;
            fill: none;
            stroke-dasharray: 2000 120;
            stroke-linecap: butt;
        }
    </style>
    <path class="orbit-path" d="M154.344 357.076C119.934 373.902 53.7086 406.108 16.4325 396.116C-27.3339 380.221 32.5479 308.412 49.398 288.598C109.696 219.826 181.922 162.442 257.111 110.839C314.005 72.8522 373.347 37.364 437.638 13.4113C466.317 2.51255 543.245 -19.3829 526.909 37.2415C517.799 64.4761 499.087 87.2287 480.939 109.026C451.035 143.584 417.334 174.639 382.409 204.029C417.187 174.492 450.741 143.29 480.473 108.634C498.499 86.8369 529.922 49.3159 528.281 20.3179C523.309 -15.3173 459.411 6.74958 437.932 14.2685C373.764 38.2702 314.543 73.8319 257.772 111.843C182.583 163.299 110.333 220.536 50.0103 289.137C33.0622 308.975 -26.1338 380 16.6284 395.528C53.782 405.57 120.081 373.657 154.344 357.076Z">
        <animate 
            attributeName="stroke-dashoffset"
            values="2120;0"
            dur="3s"
            repeatCount="indefinite"
        />
    </path>
    <path class="orbit-path" d="M144.597 343.435C120.13 353.525 94.4625 364.546 67.5219 363.763C29.1192 360.922 52.1167 318.723 65.2441 300.403C75.4326 285.708 87.0416 272.066 99.1404 258.963C148.099 206.919 204.527 162.369 263.626 122.423C315.768 88.5023 370.139 55.4633 430.364 38.2457C484.661 23.9672 498.377 47.1362 467.934 93.0088C442.977 130.113 410.158 161.144 376.874 190.632C410.036 160.997 442.536 129.746 467.395 92.6414C511.235 24.2121 455.223 27.7144 405.162 47.2586C322.209 80.1262 247.682 131.534 178.273 186.958C150.671 209.515 124.122 233.468 99.7282 259.502C81.8004 279.169 63.9461 299.668 52.3616 323.817C23.7065 389.479 115.844 356.538 144.621 343.41L144.597 343.435Z">
        <animate 
            attributeName="stroke-dashoffset"
            values="0;2120"
            dur="3s"
            repeatCount="indefinite"
        />
    </path>
</svg>
