<svg width="636" height="183" viewBox="0 0 636 183" fill="none" xmlns="http://www.w3.org/2000/svg">
    <style>
        .orbit-path {
            stroke: #A1A1A1;
            stroke-width: 2;
            opacity: 0.5;
            fill: none;
            stroke-dasharray: 2500 120;
            stroke-linecap: butt;
        }
    </style>
    <path class="orbit-path" d="M186.87 142.399C142.54 130.814 98.4551 117.222 57.1624 97.1385C33.7485 85.4315 -24.3944 53.6415 11.3142 25.3538C72.2492 -14.2735 243.543 3.01755 316.675 13.8183C406.95 28.1459 498.132 47.3962 580.963 87.2194C599.65 97.0895 639.351 117.956 635.652 142.546C631.562 160.523 606.532 167.895 590.906 172.181C546.16 182.834 499.724 182.932 454.023 181.683C499.7 182.736 546.16 182.442 590.759 171.617C635.138 160.572 654.511 137.133 610.108 105.417C600.801 98.7549 590.808 93.1219 580.595 87.9542C539.523 67.5772 495.463 53.8375 451.231 42.106C335.509 12.8876 159.17 -14.2735 43.0308 12.4713C-3.30719 24.5211 -16.0183 49.1351 27.6991 79.3576C75.7759 110.78 131.911 127.239 186.821 142.374L186.87 142.399Z">
        <animate 
            attributeName="stroke-dashoffset"
            values="2620;0"
            dur="3s"
            repeatCount="indefinite"
        />
    </path>
    <path class="orbit-path" d="M189.564 128.292C-0.294716 74.3124 14.5471 9.67921 208.691 16.8307C299.237 20.8229 389.635 35.8852 475.943 63.732C493.161 69.463 510.158 75.8798 526.64 83.4967C542.952 91.3095 559.435 99.808 572.342 112.74C589.976 131.084 579.591 145.901 558.602 153.763C524.289 165.984 487.087 166.449 451.035 166.621C478.196 166.621 505.529 165.519 532.249 160.474C555.638 156.285 599.625 142.57 571.827 113.229C558.994 100.42 542.535 91.9708 526.298 84.2314C509.839 76.6636 492.842 70.2957 475.649 64.6137C389.39 36.9873 299.041 22.1454 208.642 17.8594C15.7717 10.6589 0.391045 73.0633 189.564 128.292Z">
        <animate 
            attributeName="stroke-dashoffset"
            values="0;2620"
            dur="3s"
            repeatCount="indefinite"
        />
    </path>
</svg>
